<?xml version="1.0" encoding="UTF-8" standalone="no"?>
<!DOCTYPE svg PUBLIC "-//W3C//DTD SVG 1.1//EN" "http://www.w3.org/Graphics/SVG/1.1/DTD/svg11.dtd">
<svg width="100%" height="100%" viewBox="0 0 1440 900" version="1.1" xmlns="http://www.w3.org/2000/svg" xmlns:xlink="http://www.w3.org/1999/xlink" xml:space="preserve" xmlns:serif="http://www.serif.com/" style="fill-rule:evenodd;clip-rule:evenodd;stroke-linejoin:round;stroke-miterlimit:2;">
    <g opacity="0.22">
        <g transform="matrix(0.737877,0.674935,-1.21528,1.32861,1415.67,-737.804)">
            <rect x="643.343" y="324.417" width="11.098" height="596.168" style="fill:rgb(215,151,0);"/>
        </g>
        <g transform="matrix(0.737877,0.674935,-1.21528,1.32861,1404.63,-636.924)">
            <rect x="643.343" y="324.417" width="11.098" height="596.168" style="fill:rgb(215,151,0);"/>
        </g>
        <g transform="matrix(1.44882,1.32523,-1.21528,1.32861,988.294,-994.686)">
            <rect x="643.343" y="324.417" width="11.098" height="596.168" style="fill:rgb(215,151,0);"/>
        </g>
        <g transform="matrix(0.583768,0.533972,-1.42092,1.55343,1566.24,-829.905)">
            <rect x="643.343" y="324.417" width="11.098" height="596.168" style="fill:rgb(215,151,0);"/>
        </g>
        <g transform="matrix(1.23431,1.12902,-1.43785,1.57194,865.767,-1258.98)">
            <rect x="643.343" y="324.417" width="11.098" height="596.168" style="fill:rgb(215,151,0);"/>
        </g>
        <g transform="matrix(0.36186,0.330993,-1.43785,1.57194,1266.68,-742.987)">
            <rect x="643.343" y="324.417" width="11.098" height="596.168" style="fill:rgb(215,151,0);"/>
        </g>
        <g transform="matrix(0.36186,0.330993,-1.43785,1.57194,959.685,-955.38)">
            <rect x="643.343" y="324.417" width="11.098" height="596.168" style="fill:rgb(215,151,0);"/>
        </g>
        <g transform="matrix(0.36186,0.330993,-1.43785,1.57194,936.764,-965.481)">
            <rect x="643.343" y="324.417" width="11.098" height="596.168" style="fill:rgb(215,151,0);"/>
        </g>
        <g transform="matrix(1.55325,1.42075,-1.43785,1.57194,238.828,-1468.74)">
            <rect x="643.343" y="324.417" width="11.098" height="596.168" style="fill:rgb(215,151,0);"/>
        </g>
        <g transform="matrix(0.761702,0.696727,-1.43785,1.57194,690.887,-1006.96)">
            <rect x="643.343" y="324.417" width="11.098" height="596.168" style="fill:rgb(215,151,0);"/>
        </g>
        <g transform="matrix(0.761702,0.696727,-1.43785,1.57194,637.186,-1068.81)">
            <rect x="643.343" y="324.417" width="11.098" height="596.168" style="fill:rgb(215,151,0);"/>
        </g>
    </g>
</svg>
